<svg width="24" height="25" viewBox="0 0 24 25" fill="none" xmlns="http://www.w3.org/2000/svg">
<path d="M4 8.66357H20M4 8.66357V17.4638C4 18.5839 4 19.1436 4.21799 19.5715C4.40973 19.9478 4.71547 20.2541 5.0918 20.4458C5.5192 20.6636 6.07899 20.6636 7.19691 20.6636H16.8031C17.921 20.6636 18.48 20.6636 18.9074 20.4458C19.2837 20.2541 19.5905 19.9478 19.7822 19.5715C20 19.1441 20 18.5851 20 17.4672V8.66357M4 8.66357V7.86377C4 6.74366 4 6.18319 4.21799 5.75537C4.40973 5.37905 4.71547 5.07331 5.0918 4.88156C5.51962 4.66357 6.08009 4.66357 7.2002 4.66357H8M20 8.66357V7.86048C20 6.74257 20 6.18278 19.7822 5.75537C19.5905 5.37905 19.2837 5.07331 18.9074 4.88156C18.4796 4.66357 17.9203 4.66357 16.8002 4.66357H16M16 2.66357V4.66357M16 4.66357H8M8 2.66357V4.66357" stroke="#383838" stroke-width="2" stroke-linecap="round" stroke-linejoin="round"/>
</svg>
